<svg width="56" height="56" viewBox="0 0 56 56" fill="none" xmlns="http://www.w3.org/2000/svg">
<rect width="56" height="56" rx="9" fill="url(#paint0_linear_619_38447)" style=""/>
<mask id="path-2-outside-1_619_38447" maskUnits="userSpaceOnUse" x="8.72205" y="6.5" width="39" height="42" fill="black">
<rect fill="white" x="8.72205" y="6.5" width="39" height="42"/>
<path fill-rule="evenodd" clip-rule="evenodd" d="M29.9167 8.92252C35.3955 9.27121 40.6195 12.0927 43.2576 16.9933C43.6385 17.7008 44.0981 18.5945 44.3505 19.4273L46.9425 21.3316L45.9512 22.6808C45.8917 22.7803 45.8215 22.8763 45.7407 22.9675L45.056 23.8994C44.9201 27.0486 44.3784 29.9751 42.4217 32.5756C38.2512 38.1177 28.9518 39.3022 24.3142 33.6821C22.1905 31.1084 21.5615 27.6628 22.4792 24.4765C23.8203 19.8201 29.3845 17.315 33.7209 19.6037C35.6479 20.6208 36.9417 22.5368 37.1619 24.7073C37.5045 28.0833 34.9273 31.4034 31.3393 31.1036C28.975 30.906 26.7898 28.1442 28.8471 25.9293C30.2319 24.4384 33.1519 25.039 33.1534 27.3056C33.1535 27.5921 33.0881 27.8818 32.9822 28.1483C32.8893 28.3821 32.7451 28.6007 32.5678 28.7791C30.8787 30.4777 28.2718 27.741 30.247 26.4488C30.4274 26.3308 30.6381 26.2669 30.8455 26.204C30.8744 26.1952 30.9032 26.1865 30.9318 26.1777C29.2843 25.9706 28.772 28.2288 29.7728 29.2281C31.4483 30.9009 34.0772 29.7899 35.2002 28.3594C35.7484 27.3614 36.002 26.4966 36.0625 25.3588C36.2445 21.9352 33.1415 20.0839 30.1626 19.8893C27.8251 19.7367 25.4952 21.1782 24.3078 23.1266C23.5107 24.4344 23.1357 26.07 23.1761 27.5935C23.2224 29.3382 23.7657 30.9944 24.7664 32.4263C25.843 33.9668 27.3398 35.0236 29.1025 35.6526C34.003 37.4017 39.6424 35.2605 42.2338 30.7786C43.4453 28.6832 43.9178 26.4059 43.9219 24.0338L41.3981 22.1796L43.1942 19.7349C42.5199 17.8989 42.0902 17.0304 40.7411 15.2703C38.1942 11.9474 34.0073 10.5038 29.9995 10.0155C29.816 11.002 28.9507 11.7489 27.911 11.7489C26.9376 11.7489 26.1171 11.0943 25.8657 10.2013C25.8186 10.2114 25.7718 10.2214 25.7254 10.2314L25.7252 10.2315C24.1123 10.5774 22.9247 10.8321 21.4704 11.5964C18.8257 12.9866 17.9798 13.4573 15.8616 15.5873C11.9941 19.4769 10.7082 25.3689 10.8422 30.6587C11.5189 30.5637 12.216 30.5765 12.8919 30.6759C14.9259 30.9749 15.8132 32.3883 16.1639 34.308C16.3401 35.273 16.2936 36.286 16.2471 37.2995C16.1725 38.9239 16.0979 40.5495 16.9399 41.9809C18.2795 44.2578 21.1062 44.5139 23.5785 44.7379C24.0735 44.7828 24.5543 44.8263 25.0062 44.8846L25.071 44.8932C25.0352 44.5574 25.0372 44.2104 25.0393 43.8656V43.8655C25.0404 43.6816 25.0414 43.4982 25.0368 43.3175C25.5898 43.3521 28.7289 43.3332 29.1488 43.3116L29.1497 47.4725C28.5296 47.5078 27.9058 47.491 27.2818 47.4742C26.5472 47.4545 25.8124 47.4347 25.0834 47.4999C25.0105 46.991 25.019 46.4393 25.0715 45.928C22.0175 45.8872 16.7614 45.4896 15.639 41.8894C15.4327 41.2274 15.2516 40.5474 15.2012 39.856C15.0997 38.4627 15.1361 37.6126 15.1665 36.9005C15.2074 35.9454 15.2376 35.2387 14.9102 33.8026C14.8067 33.3493 14.462 32.5645 14.0677 32.2576C13.5612 31.8632 12.6322 31.7465 12.0508 31.7249C11.3141 31.6975 10.5739 31.6958 9.83934 31.7591L9.83361 31.6929C9.66802 29.7206 9.67284 27.6693 9.94279 25.705C10.9255 18.5551 15.5268 12.6201 22.2095 10.0114C22.9276 9.7312 25.0208 9.23398 25.856 9.08349C26.0952 8.1722 26.9246 7.5 27.911 7.5C28.8383 7.5 29.6268 8.09414 29.9167 8.92252Z"/>
</mask>
<path fill-rule="evenodd" clip-rule="evenodd" d="M29.9167 8.92252C35.3955 9.27121 40.6195 12.0927 43.2576 16.9933C43.6385 17.7008 44.0981 18.5945 44.3505 19.4273L46.9425 21.3316L45.9512 22.6808C45.8917 22.7803 45.8215 22.8763 45.7407 22.9675L45.056 23.8994C44.9201 27.0486 44.3784 29.9751 42.4217 32.5756C38.2512 38.1177 28.9518 39.3022 24.3142 33.6821C22.1905 31.1084 21.5615 27.6628 22.4792 24.4765C23.8203 19.8201 29.3845 17.315 33.7209 19.6037C35.6479 20.6208 36.9417 22.5368 37.1619 24.7073C37.5045 28.0833 34.9273 31.4034 31.3393 31.1036C28.975 30.906 26.7898 28.1442 28.8471 25.9293C30.2319 24.4384 33.1519 25.039 33.1534 27.3056C33.1535 27.5921 33.0881 27.8818 32.9822 28.1483C32.8893 28.3821 32.7451 28.6007 32.5678 28.7791C30.8787 30.4777 28.2718 27.741 30.247 26.4488C30.4274 26.3308 30.6381 26.2669 30.8455 26.204C30.8744 26.1952 30.9032 26.1865 30.9318 26.1777C29.2843 25.9706 28.772 28.2288 29.7728 29.2281C31.4483 30.9009 34.0772 29.7899 35.2002 28.3594C35.7484 27.3614 36.002 26.4966 36.0625 25.3588C36.2445 21.9352 33.1415 20.0839 30.1626 19.8893C27.8251 19.7367 25.4952 21.1782 24.3078 23.1266C23.5107 24.4344 23.1357 26.07 23.1761 27.5935C23.2224 29.3382 23.7657 30.9944 24.7664 32.4263C25.843 33.9668 27.3398 35.0236 29.1025 35.6526C34.003 37.4017 39.6424 35.2605 42.2338 30.7786C43.4453 28.6832 43.9178 26.4059 43.9219 24.0338L41.3981 22.1796L43.1942 19.7349C42.5199 17.8989 42.0902 17.0304 40.7411 15.2703C38.1942 11.9474 34.0073 10.5038 29.9995 10.0155C29.816 11.002 28.9507 11.7489 27.911 11.7489C26.9376 11.7489 26.1171 11.0943 25.8657 10.2013C25.8186 10.2114 25.7718 10.2214 25.7254 10.2314L25.7252 10.2315C24.1123 10.5774 22.9247 10.8321 21.4704 11.5964C18.8257 12.9866 17.9798 13.4573 15.8616 15.5873C11.9941 19.4769 10.7082 25.3689 10.8422 30.6587C11.5189 30.5637 12.216 30.5765 12.8919 30.6759C14.9259 30.9749 15.8132 32.3883 16.1639 34.308C16.3401 35.273 16.2936 36.286 16.2471 37.2995C16.1725 38.9239 16.0979 40.5495 16.9399 41.9809C18.2795 44.2578 21.1062 44.5139 23.5785 44.7379C24.0735 44.7828 24.5543 44.8263 25.0062 44.8846L25.071 44.8932C25.0352 44.5574 25.0372 44.2104 25.0393 43.8656V43.8655C25.0404 43.6816 25.0414 43.4982 25.0368 43.3175C25.5898 43.3521 28.7289 43.3332 29.1488 43.3116L29.1497 47.4725C28.5296 47.5078 27.9058 47.491 27.2818 47.4742C26.5472 47.4545 25.8124 47.4347 25.0834 47.4999C25.0105 46.991 25.019 46.4393 25.0715 45.928C22.0175 45.8872 16.7614 45.4896 15.639 41.8894C15.4327 41.2274 15.2516 40.5474 15.2012 39.856C15.0997 38.4627 15.1361 37.6126 15.1665 36.9005C15.2074 35.9454 15.2376 35.2387 14.9102 33.8026C14.8067 33.3493 14.462 32.5645 14.0677 32.2576C13.5612 31.8632 12.6322 31.7465 12.0508 31.7249C11.3141 31.6975 10.5739 31.6958 9.83934 31.7591L9.83361 31.6929C9.66802 29.7206 9.67284 27.6693 9.94279 25.705C10.9255 18.5551 15.5268 12.6201 22.2095 10.0114C22.9276 9.7312 25.0208 9.23398 25.856 9.08349C26.0952 8.1722 26.9246 7.5 27.911 7.5C28.8383 7.5 29.6268 8.09414 29.9167 8.92252Z" fill="#F5FAFF" style="fill:#F5FAFF;fill:color(display-p3 0.9608 0.9804 1.0000);fill-opacity:1;"/>
<path d="M43.2576 16.9933L42.9054 17.1829L42.9054 17.1829L43.2576 16.9933ZM29.9167 8.92252L29.5392 9.05464L29.6267 9.30488L29.8913 9.32171L29.9167 8.92252ZM44.3505 19.4273L43.9677 19.5433L44.0063 19.6708L44.1137 19.7496L44.3505 19.4273ZM46.9425 21.3316L47.2649 21.5684L47.5017 21.2461L47.1793 21.0092L46.9425 21.3316ZM45.9512 22.6808L45.6289 22.444L45.6177 22.4592L45.6081 22.4753L45.9512 22.6808ZM45.7407 22.9675L45.4415 22.7019L45.4292 22.7157L45.4183 22.7306L45.7407 22.9675ZM45.056 23.8994L44.7336 23.6625L44.6616 23.7606L44.6564 23.8821L45.056 23.8994ZM42.4217 32.5756L42.7413 32.8161L42.7413 32.8161L42.4217 32.5756ZM24.3142 33.6821L24.0057 33.9367L24.0057 33.9367L24.3142 33.6821ZM22.4792 24.4765L22.0948 24.3658L22.0948 24.3658L22.4792 24.4765ZM33.7209 19.6037L33.5342 19.9575L33.5342 19.9575L33.7209 19.6037ZM37.1619 24.7073L36.7639 24.7476L36.7639 24.7477L37.1619 24.7073ZM31.3393 31.1036L31.306 31.5022H31.306L31.3393 31.1036ZM28.8471 25.9293L29.1402 26.2015L29.1402 26.2015L28.8471 25.9293ZM33.1534 27.3056L33.5534 27.3054V27.3053L33.1534 27.3056ZM32.9822 28.1483L33.3539 28.296L33.3539 28.296L32.9822 28.1483ZM32.5678 28.7791L32.8514 29.0612L32.8514 29.0611L32.5678 28.7791ZM30.247 26.4488L30.0281 26.114L30.028 26.1141L30.247 26.4488ZM30.8455 26.204L30.7294 25.8212H30.7294L30.8455 26.204ZM30.9318 26.1777L31.05 26.5598L30.9817 25.7808L30.9318 26.1777ZM29.7728 29.2281L29.4902 29.5112L29.4902 29.5112L29.7728 29.2281ZM35.2002 28.3594L35.5148 28.6064L35.535 28.5807L35.5508 28.552L35.2002 28.3594ZM36.0625 25.3588L35.6631 25.3375L35.6631 25.3375L36.0625 25.3588ZM30.1626 19.8893L30.1887 19.4902H30.1887L30.1626 19.8893ZM24.3078 23.1266L23.9662 22.9185L23.9662 22.9185L24.3078 23.1266ZM23.1761 27.5935L22.7762 27.6041V27.6041L23.1761 27.5935ZM24.7664 32.4263L24.4385 32.6554L24.4385 32.6555L24.7664 32.4263ZM29.1025 35.6526L29.2369 35.2759L29.2369 35.2759L29.1025 35.6526ZM42.2338 30.7786L41.8875 30.5784L41.8875 30.5784L42.2338 30.7786ZM43.9219 24.0338L44.3219 24.0345L44.3223 23.8316L44.1588 23.7115L43.9219 24.0338ZM41.3981 22.1796L41.0757 21.9427L40.8389 22.2651L41.1612 22.5019L41.3981 22.1796ZM43.1942 19.7349L43.5165 19.9717L43.6437 19.7986L43.5697 19.597L43.1942 19.7349ZM40.7411 15.2703L40.4236 15.5137L40.4236 15.5137L40.7411 15.2703ZM29.9995 10.0155L30.0479 9.61844L29.675 9.573L29.6063 9.94233L29.9995 10.0155ZM25.8657 10.2013L26.2508 10.0929L26.149 9.73136L25.7818 9.81021L25.8657 10.2013ZM25.7254 10.2314L25.6415 9.8403L25.6405 9.84052L25.7254 10.2314ZM25.7252 10.2315L25.809 10.6226L25.8101 10.6223L25.7252 10.2315ZM21.4704 11.5964L21.2843 11.2424L21.2843 11.2424L21.4704 11.5964ZM15.8616 15.5873L15.578 15.3053L15.578 15.3053L15.8616 15.5873ZM10.8422 30.6587L10.4424 30.6688L10.4537 31.1172L10.8978 31.0548L10.8422 30.6587ZM12.8919 30.6759L12.9501 30.2801H12.9501L12.8919 30.6759ZM16.1639 34.308L16.5574 34.2361L16.5573 34.2361L16.1639 34.308ZM16.2471 37.2995L15.8475 37.2812L16.2471 37.2995ZM16.9399 41.9809L16.5952 42.1837L16.5952 42.1837L16.9399 41.9809ZM23.5785 44.7379L23.5424 45.1363H23.5424L23.5785 44.7379ZM25.0062 44.8846L25.0587 44.4881L25.0573 44.4879L25.0062 44.8846ZM25.071 44.8932L25.0184 45.2897L25.5227 45.3565L25.4687 44.8508L25.071 44.8932ZM25.0393 43.8656L25.4393 43.8679V43.8656H25.0393ZM25.0393 43.8655L24.6393 43.8631V43.8655H25.0393ZM25.0368 43.3175L25.0617 42.9183L24.6256 42.8911L24.6369 43.3279L25.0368 43.3175ZM29.1488 43.3116L29.5488 43.3116L29.5487 42.8906L29.1282 42.9122L29.1488 43.3116ZM29.1497 47.4725L29.1724 47.8718L29.5497 47.8503L29.5497 47.4724L29.1497 47.4725ZM27.2818 47.4742L27.271 47.8741H27.271L27.2818 47.4742ZM25.0834 47.4999L24.6874 47.5566L24.7411 47.9322L25.119 47.8983L25.0834 47.4999ZM25.0715 45.928L25.4694 45.9689L25.514 45.5339L25.0768 45.5281L25.0715 45.928ZM15.639 41.8894L15.2572 42.0084L15.2572 42.0084L15.639 41.8894ZM15.2012 39.856L15.6002 39.8269L15.6002 39.8269L15.2012 39.856ZM15.1665 36.9005L15.5662 36.9176L15.1665 36.9005ZM14.9102 33.8026L15.3002 33.7137L15.3001 33.7136L14.9102 33.8026ZM14.0677 32.2576L13.822 32.5732H13.822L14.0677 32.2576ZM12.0508 31.7249L12.0359 32.1246L12.036 32.1246L12.0508 31.7249ZM9.83934 31.7591L9.44083 31.7936L9.47531 32.192L9.8737 32.1577L9.83934 31.7591ZM9.83361 31.6929L9.43501 31.7264L9.4351 31.7274L9.83361 31.6929ZM9.94279 25.705L9.54652 25.6506L9.54652 25.6506L9.94279 25.705ZM22.2095 10.0114L22.0641 9.63879L22.0641 9.63881L22.2095 10.0114ZM25.856 9.08349L25.9269 9.47715L26.1781 9.4319L26.2429 9.18506L25.856 9.08349ZM43.6098 16.8037C40.8952 11.761 35.5337 8.8792 29.9421 8.52333L29.8913 9.32171C35.2573 9.66323 40.3438 12.4244 42.9054 17.1829L43.6098 16.8037ZM44.7333 19.3112C44.468 18.4359 43.9903 17.5104 43.6098 16.8037L42.9054 17.1829C43.2868 17.8913 43.7282 18.7532 43.9677 19.5433L44.7333 19.3112ZM47.1793 21.0092L44.5873 19.1049L44.1137 19.7496L46.7057 21.6539L47.1793 21.0092ZM46.2736 22.9177L47.2649 21.5684L46.6202 21.0948L45.6289 22.444L46.2736 22.9177ZM46.0398 23.233C46.1371 23.1233 46.222 23.0073 46.2944 22.8863L45.6081 22.4753C45.5613 22.5534 45.5059 22.6293 45.4415 22.7019L46.0398 23.233ZM45.3783 24.1362L46.063 23.2043L45.4183 22.7306L44.7336 23.6625L45.3783 24.1362ZM42.7413 32.8161C44.7692 30.121 45.3183 27.0984 45.4556 23.9166L44.6564 23.8821C44.5219 26.9987 43.9875 29.8293 42.1021 32.3351L42.7413 32.8161ZM24.0057 33.9367C26.4233 36.8665 30.046 38.0084 33.5764 37.7133C37.103 37.4185 40.5801 35.6881 42.7413 32.8161L42.1021 32.3351C40.0928 35.0052 36.835 36.6381 33.5098 36.9161C30.1886 37.1937 26.8427 36.1178 24.6228 33.4275L24.0057 33.9367ZM22.0948 24.3658C21.1427 27.6717 21.7933 31.2555 24.0057 33.9367L24.6228 33.4275C22.5877 30.9613 21.9803 27.654 22.8636 24.5872L22.0948 24.3658ZM33.9076 19.2499C29.3384 16.8384 23.5035 19.4748 22.0948 24.3658L22.8636 24.5872C24.1371 20.1654 29.4305 17.7916 33.5342 19.9575L33.9076 19.2499ZM37.5599 24.6669C37.3261 22.363 35.9529 20.3294 33.9076 19.2499L33.5342 19.9575C35.3429 20.9121 36.5573 22.7106 36.7639 24.7476L37.5599 24.6669ZM31.306 31.5022C35.195 31.8271 37.9223 28.2377 37.5599 24.6669L36.7639 24.7477C37.0868 27.9289 34.6597 30.9796 31.3726 30.705L31.306 31.5022ZM28.5541 25.6571C27.985 26.2698 27.6931 26.9399 27.6375 27.6114C27.5821 28.2795 27.7629 28.9201 28.0905 29.476C28.7393 30.5769 29.9911 31.3923 31.306 31.5022L31.3726 30.705C30.3232 30.6173 29.3002 29.953 28.7797 29.0698C28.5227 28.6337 28.3951 28.1563 28.4347 27.6774C28.4741 27.202 28.6806 26.6963 29.1402 26.2015L28.5541 25.6571ZM33.5534 27.3053C33.5525 25.9615 32.6705 25.1087 31.6245 24.8226C30.5967 24.5414 29.3606 24.7887 28.5541 25.6571L29.1402 26.2015C29.7184 25.579 30.6347 25.3812 31.4134 25.5942C32.174 25.8023 32.7528 26.3831 32.7534 27.3058L33.5534 27.3053ZM33.3539 28.296C33.4749 27.9915 33.5535 27.6514 33.5534 27.3054L32.7534 27.3058C32.7535 27.5328 32.7012 27.7721 32.6105 28.0006L33.3539 28.296ZM32.8514 29.0611C33.0664 28.8449 33.2408 28.5807 33.3539 28.296L32.6105 28.0006C32.5378 28.1834 32.4238 28.3566 32.2841 28.4971L32.8514 29.0611ZM30.028 26.1141C29.4368 26.5008 29.1483 27.0305 29.1388 27.5901C29.1297 28.1307 29.3815 28.639 29.7465 29.0144C30.1129 29.3911 30.6223 29.6649 31.1813 29.7119C31.7524 29.7599 32.3475 29.568 32.8514 29.0612L32.2841 28.4971C31.9436 28.8396 31.5793 28.9425 31.2483 28.9147C30.9052 28.8859 30.5696 28.7132 30.32 28.4566C30.0691 28.1986 29.9339 27.8866 29.9387 27.6037C29.9432 27.3399 30.0696 27.0429 30.4659 26.7836L30.028 26.1141ZM30.7294 25.8212C30.5323 25.881 30.2647 25.9593 30.0281 26.114L30.4658 26.7836C30.5901 26.7024 30.7439 26.6528 30.9617 26.5868L30.7294 25.8212ZM30.8136 25.7955C30.7862 25.804 30.7584 25.8124 30.7294 25.8212L30.9617 26.5868C30.9903 26.5781 31.0201 26.569 31.05 26.5598L30.8136 25.7955ZM30.0554 28.945C29.6822 28.5724 29.5667 27.9235 29.7407 27.3706C29.8253 27.1021 29.9705 26.8849 30.1551 26.7463C30.3332 26.6126 30.5693 26.5353 30.8819 26.5745L30.9817 25.7808C30.4705 25.7165 30.0248 25.8438 29.6748 26.1065C29.3313 26.3644 29.102 26.7353 28.9777 27.1304C28.7339 27.9047 28.8626 28.8846 29.4902 29.5112L30.0554 28.945ZM34.8855 28.1124C34.3785 28.7583 33.5173 29.3432 32.5982 29.569C31.6911 29.7919 30.7706 29.659 30.0554 28.945L29.4902 29.5112C30.4505 30.4699 31.6823 30.6179 32.7891 30.3459C33.8842 30.0768 34.8989 29.391 35.5148 28.6064L34.8855 28.1124ZM35.6631 25.3375C35.6059 26.4135 35.3697 27.2199 34.8496 28.1669L35.5508 28.552C36.127 27.5029 36.3982 26.5797 36.4619 25.38L35.6631 25.3375ZM30.1366 20.2885C31.5598 20.3814 32.9964 20.8704 34.0455 21.7235C35.0836 22.5677 35.7465 23.7681 35.6631 25.3375L36.4619 25.38C36.5605 23.5259 35.7629 22.0889 34.5502 21.1028C33.3487 20.1257 31.7443 19.5918 30.1887 19.4902L30.1366 20.2885ZM24.6493 23.3348C25.7728 21.4913 27.9717 20.1471 30.1366 20.2885L30.1887 19.4902C27.6785 19.3263 25.2177 20.865 23.9662 22.9185L24.6493 23.3348ZM23.5759 27.5829C23.5373 26.1259 23.8975 24.5684 24.6493 23.3348L23.9662 22.9185C23.1239 24.3005 22.734 26.0141 22.7762 27.6041L23.5759 27.5829ZM25.0942 32.1972C24.1387 30.8297 23.6202 29.2496 23.5759 27.5829L22.7762 27.6041C22.8246 29.4268 23.3928 31.159 24.4385 32.6554L25.0942 32.1972ZM29.2369 35.2759C27.5425 34.6712 26.1175 33.6614 25.0942 32.1972L24.4385 32.6555C25.5685 34.2723 27.1371 35.376 28.968 36.0293L29.2369 35.2759ZM41.8875 30.5784C39.3908 34.8966 33.9519 36.9587 29.2369 35.2759L28.968 36.0293C34.0542 37.8447 39.8941 35.6244 42.5801 30.9788L41.8875 30.5784ZM43.5219 24.0331C43.5179 26.3514 43.0567 28.5563 41.8875 30.5784L42.5801 30.9788C43.834 28.8101 44.3177 26.4604 44.3219 24.0345L43.5219 24.0331ZM41.1612 22.5019L43.6851 24.3562L44.1588 23.7115L41.6349 21.8572L41.1612 22.5019ZM42.8718 19.498L41.0757 21.9427L41.7204 22.4164L43.5165 19.9717L42.8718 19.498ZM40.4236 15.5137C41.7458 17.2387 42.1569 18.0709 42.8187 19.8728L43.5697 19.597C42.8829 17.727 42.4346 16.8222 41.0585 15.027L40.4236 15.5137ZM29.9511 10.4126C33.9145 10.8955 37.9723 12.3155 40.4236 15.5137L41.0585 15.027C38.416 11.5794 34.1002 10.1122 30.0479 9.61844L29.9511 10.4126ZM29.6063 9.94233C29.4573 10.7429 28.7545 11.3489 27.911 11.3489V12.1489C29.1469 12.1489 30.1746 11.2612 30.3928 10.0887L29.6063 9.94233ZM27.911 11.3489C27.1214 11.3489 26.4549 10.818 26.2508 10.0929L25.4807 10.3097C25.7793 11.3706 26.7537 12.1489 27.911 12.1489V11.3489ZM25.8093 10.6225C25.8557 10.6126 25.9025 10.6025 25.9497 10.5924L25.7818 9.81021C25.7347 9.82032 25.688 9.83034 25.6415 9.8403L25.8093 10.6225ZM25.8101 10.6223L25.8103 10.6223L25.6405 9.84052L25.6402 9.84057L25.8101 10.6223ZM21.6565 11.9505C23.0567 11.2146 24.1946 10.9688 25.809 10.6226L25.6413 9.84035C24.03 10.1859 22.7927 10.4496 21.2843 11.2424L21.6565 11.9505ZM16.1453 15.8694C17.196 14.8127 17.9176 14.1815 18.696 13.6435C19.4794 13.102 20.3298 12.6479 21.6565 11.9505L21.2843 11.2424C19.9662 11.9352 19.0714 12.4115 18.2411 12.9854C17.4059 13.5627 16.6454 14.2319 15.578 15.3053L16.1453 15.8694ZM11.2421 30.6485C11.1094 25.4128 12.3865 19.6496 16.1453 15.8694L15.578 15.3053C11.6017 19.3042 10.3069 25.3249 10.4424 30.6688L11.2421 30.6485ZM12.9501 30.2801C12.2406 30.1758 11.505 30.1617 10.7866 30.2626L10.8978 31.0548C11.5328 30.9656 12.1913 30.9772 12.8337 31.0716L12.9501 30.2801ZM16.5573 34.2361C16.3754 33.2399 16.0473 32.3328 15.4678 31.6298C14.8798 30.9165 14.0571 30.4429 12.9501 30.2801L12.8337 31.0716C13.7606 31.2079 14.3986 31.5905 14.8505 32.1386C15.3108 32.697 15.6017 33.4564 15.7704 34.3799L16.5573 34.2361ZM16.6466 37.3179C16.6927 36.3133 16.7432 35.2537 16.5574 34.2361L15.7704 34.3798C15.937 35.2922 15.8944 36.2587 15.8475 37.2812L16.6466 37.3179ZM17.2847 41.7781C16.5128 40.466 16.5711 38.9649 16.6466 37.3179L15.8475 37.2812C15.774 38.8829 15.683 40.6331 16.5952 42.1837L17.2847 41.7781ZM23.6145 44.3396C22.3694 44.2267 21.0898 44.1091 19.9558 43.7481C18.8323 43.3905 17.8889 42.8051 17.2847 41.7781L16.5952 42.1837C17.3305 43.4336 18.4702 44.1147 19.7131 44.5104C20.9454 44.9027 22.3152 45.0251 23.5424 45.1363L23.6145 44.3396ZM25.0573 44.4879C24.5966 44.4285 24.108 44.3843 23.6145 44.3396L23.5424 45.1363C24.039 45.1813 24.5121 45.2242 24.955 45.2813L25.0573 44.4879ZM25.1236 44.4967L25.0587 44.4881L24.9536 45.2811L25.0184 45.2897L25.1236 44.4967ZM24.6393 43.8632C24.6373 44.2039 24.6347 44.5736 24.6733 44.9356L25.4687 44.8508C25.4357 44.5412 25.4372 44.217 25.4393 43.8679L24.6393 43.8632ZM24.6393 43.8655V43.8656H25.4393V43.8655H24.6393ZM24.6369 43.3279C24.6414 43.5011 24.6404 43.6781 24.6393 43.8631L25.4393 43.8678C25.4403 43.685 25.4415 43.4953 25.4366 43.3072L24.6369 43.3279ZM29.1282 42.9122C28.7184 42.9332 25.5952 42.9516 25.0617 42.9183L25.0118 43.7167C25.5844 43.7525 28.7394 43.7332 29.1693 43.7111L29.1282 42.9122ZM29.5497 47.4724L29.5488 43.3116L28.7488 43.3117L28.7497 47.4726L29.5497 47.4724ZM27.271 47.8741C27.8922 47.8908 28.5328 47.9083 29.1724 47.8718L29.1269 47.0731C28.5265 47.1074 27.9194 47.0913 27.2925 47.0744L27.271 47.8741ZM25.119 47.8983C25.821 47.8355 26.5324 47.8542 27.271 47.8741L27.2925 47.0744C26.5619 47.0547 25.8038 47.0339 25.0477 47.1015L25.119 47.8983ZM24.6735 45.8872C24.6188 46.4204 24.6086 47.0063 24.6874 47.5566L25.4793 47.4433C25.4124 46.9756 25.4191 46.4582 25.4694 45.9689L24.6735 45.8872ZM15.2572 42.0084C15.8767 43.9959 17.6285 45.0566 19.5153 45.6264C21.4077 46.1979 23.5321 46.3075 25.0661 46.328L25.0768 45.5281C23.5569 45.5077 21.5263 45.3981 19.7466 44.8606C17.9612 44.3214 16.5237 43.3831 16.0209 41.7703L15.2572 42.0084ZM14.8023 39.885C14.8561 40.6236 15.0486 41.3391 15.2572 42.0084L16.0209 41.7703C15.8169 41.1158 15.6471 40.4713 15.6002 39.8269L14.8023 39.885ZM14.7669 36.8834C14.7362 37.6015 14.6991 38.4693 14.8023 39.885L15.6002 39.8269C15.5003 38.4561 15.536 37.6236 15.5662 36.9176L14.7669 36.8834ZM14.5202 33.8915C14.8364 35.2783 14.8071 35.9451 14.7669 36.8834L15.5662 36.9176C15.6078 35.9457 15.6389 35.199 15.3002 33.7137L14.5202 33.8915ZM13.822 32.5732C13.9489 32.672 14.1013 32.8815 14.2416 33.1568C14.3774 33.4233 14.4769 33.7018 14.5202 33.8916L15.3001 33.7136C15.24 33.4501 15.1154 33.1096 14.9544 32.7936C14.7979 32.4864 14.5808 32.15 14.3135 31.9419L13.822 32.5732ZM12.036 32.1246C12.3105 32.1348 12.663 32.1675 13.0012 32.2421C13.3475 32.3184 13.6381 32.43 13.822 32.5732L14.3135 31.9419C13.9908 31.6908 13.5636 31.5468 13.1734 31.4608C12.7752 31.373 12.3725 31.3366 12.0656 31.3252L12.036 32.1246ZM9.8737 32.1577C10.5856 32.0963 11.3077 32.0975 12.0359 32.1246L12.0657 31.3252C11.3205 31.2974 10.5623 31.2953 9.80497 31.3606L9.8737 32.1577ZM9.4351 31.7274L9.44083 31.7936L10.2378 31.7246L10.2321 31.6584L9.4351 31.7274ZM9.54652 25.6506C9.27172 27.6501 9.26754 29.7317 9.43501 31.7264L10.2322 31.6595C10.0685 29.7096 10.074 27.6885 10.3391 25.7595L9.54652 25.6506ZM22.0641 9.63881C15.2433 12.3014 10.5485 18.3602 9.54652 25.6506L10.3391 25.7595C11.3024 18.75 15.8104 12.9388 22.355 10.384L22.0641 9.63881ZM25.7851 8.68983C24.9439 8.84139 22.8196 9.34399 22.0641 9.63879L22.3549 10.3841C23.0357 10.1184 25.0977 9.62656 25.9269 9.47715L25.7851 8.68983ZM26.2429 9.18506C26.4371 8.44524 27.1109 7.9 27.911 7.9V7.1C26.7383 7.1 25.7534 7.89916 25.4691 8.98192L26.2429 9.18506ZM27.911 7.9C28.6631 7.9 29.3037 8.38171 29.5392 9.05464L30.2943 8.7904C29.95 7.80658 29.0135 7.1 27.911 7.1V7.9Z" fill="#F5FAFF" style="fill:#F5FAFF;fill:color(display-p3 0.9608 0.9804 1.0000);fill-opacity:1;" mask="url(#path-2-outside-1_619_38447)"/>
<defs>
<linearGradient id="paint0_linear_619_38447" x1="56" y1="-0.499998" x2="28" y2="37.5" gradientUnits="userSpaceOnUse">
<stop stop-color="#7A44FF" style="stop-color:#7A44FF;stop-color:color(display-p3 0.4784 0.2667 1.0000);stop-opacity:1;"/>
<stop offset="1" stop-color="#5816BB" style="stop-color:#5816BB;stop-color:color(display-p3 0.3444 0.0856 0.7324);stop-opacity:1;"/>
</linearGradient>
</defs>
</svg>
