<svg width="84" height="24" viewBox="0 0 84 24" fill="none" xmlns="http://www.w3.org/2000/svg">
<path d="M8.94775 5.79834C10.7056 5.79834 12.1704 6.43717 13.3423 7.71484C14.5142 8.98438 15.1001 10.5713 15.1001 12.4756C15.1001 14.3799 14.5142 15.9709 13.3423 17.2485C12.1704 18.5181 10.7056 19.1528 8.94775 19.1528C7.40967 19.1528 6.12793 18.6279 5.10254 17.5781V23.5962H1.45264V6.10352H5.10254V7.37305C6.12793 6.32324 7.40967 5.79834 8.94775 5.79834ZM5.99365 14.7217C6.58773 15.3239 7.33236 15.625 8.22754 15.625C9.12272 15.625 9.86735 15.3239 10.4614 14.7217C11.0555 14.1195 11.3525 13.3708 11.3525 12.4756C11.3525 11.5804 11.0555 10.8317 10.4614 10.2295C9.86735 9.62728 9.12272 9.32617 8.22754 9.32617C7.33236 9.32617 6.58773 9.62728 5.99365 10.2295C5.39958 10.8317 5.10254 11.5804 5.10254 12.4756C5.10254 13.3708 5.39958 14.1195 5.99365 14.7217ZM24.8169 5.79834C26.2817 5.79834 27.4618 6.24186 28.3569 7.12891C29.2521 8.00781 29.6997 9.17969 29.6997 10.6445V18.8477H26.0498V11.8774C26.0498 11.1043 25.826 10.4858 25.3784 10.022C24.9308 9.55811 24.3368 9.32617 23.5962 9.32617C22.8068 9.32617 22.168 9.56624 21.6797 10.0464C21.1914 10.5184 20.9473 11.145 20.9473 11.9263V18.8477H17.2974V0.842285H20.9473V7.44629C21.9727 6.34766 23.2625 5.79834 24.8169 5.79834ZM34.1797 4.46777C33.5449 4.46777 33.0119 4.25618 32.5806 3.83301C32.1493 3.40169 31.9336 2.86458 31.9336 2.22168C31.9336 1.58691 32.1493 1.05794 32.5806 0.634766C33.0119 0.211589 33.5449 0 34.1797 0C34.8307 0 35.3719 0.211589 35.8032 0.634766C36.2427 1.05794 36.4624 1.58691 36.4624 2.22168C36.4624 2.86458 36.2427 3.40169 35.8032 3.83301C35.3719 4.25618 34.8307 4.46777 34.1797 4.46777ZM32.3608 18.8477V6.10352H36.0107V18.8477H32.3608ZM46.4233 5.79834C47.8882 5.79834 49.0682 6.24186 49.9634 7.12891C50.8586 8.00781 51.3062 9.17969 51.3062 10.6445V18.8477H47.6562V11.8774C47.6562 11.1043 47.4284 10.4858 46.9727 10.022C46.5251 9.55811 45.9269 9.32617 45.1782 9.32617C44.397 9.32617 43.7622 9.56624 43.2739 10.0464C42.7938 10.5184 42.5537 11.145 42.5537 11.9263V18.8477H38.9038V6.10352H42.5537V7.37305C43.5791 6.32324 44.869 5.79834 46.4233 5.79834ZM55.7861 4.46777C55.1514 4.46777 54.6183 4.25618 54.187 3.83301C53.7557 3.40169 53.54 2.86458 53.54 2.22168C53.54 1.58691 53.7557 1.05794 54.187 0.634766C54.6183 0.211589 55.1514 0 55.7861 0C56.4372 0 56.9784 0.211589 57.4097 0.634766C57.8491 1.05794 58.0688 1.58691 58.0688 2.22168C58.0688 2.86458 57.8491 3.40169 57.4097 3.83301C56.9784 4.25618 56.4372 4.46777 55.7861 4.46777ZM53.9673 18.8477V6.10352H57.6172V18.8477H53.9673ZM68.5547 9.42383H65.2832V14.0991C65.2832 15.1164 65.8162 15.625 66.8823 15.625C67.4113 15.625 67.9688 15.4744 68.5547 15.1733V18.6035C67.8304 18.9697 67.0166 19.1528 66.1133 19.1528C64.6159 19.1528 63.4928 18.7541 62.7441 17.9565C62.0036 17.1509 61.6333 16.0645 61.6333 14.6973V9.42383H59.7046V6.10352H61.6333V2.94189H65.2832V6.10352H68.5547V9.42383ZM83.2153 12.5244C83.2153 12.9639 83.1909 13.3464 83.1421 13.6719H73.645C73.8729 14.388 74.2757 14.9495 74.8535 15.3564C75.4313 15.7633 76.119 15.9668 76.9165 15.9668C77.6001 15.9668 78.2227 15.8325 78.7842 15.564C79.3457 15.2954 79.7892 14.9577 80.1147 14.5508L82.5684 16.6748C81.8766 17.4561 81.0343 18.0664 80.0415 18.5059C79.0487 18.9372 77.9744 19.1528 76.8188 19.1528C74.7925 19.1528 73.0998 18.5099 71.7407 17.2241C70.3898 15.9302 69.7144 14.3229 69.7144 12.4023C69.7144 11.1735 70.0073 10.0545 70.5933 9.04541C71.1873 8.0363 72.0052 7.24284 73.0469 6.66504C74.0885 6.08724 75.2441 5.79834 76.5137 5.79834C78.4261 5.79834 80.0212 6.43717 81.2988 7.71484C82.5765 8.99251 83.2153 10.5957 83.2153 12.5244ZM76.4648 8.94775C75.7812 8.94775 75.1831 9.15527 74.6704 9.57031C74.1577 9.97721 73.8078 10.5347 73.6206 11.2427H79.3457C79.1423 10.5265 78.7842 9.96501 78.2715 9.55811C77.7588 9.1512 77.1566 8.94775 76.4648 8.94775Z" fill="white" style="fill:white;fill-opacity:1;"/>
</svg>
