<svg width="158" height="61" viewBox="0 0 158 61" fill="none" xmlns="http://www.w3.org/2000/svg">
<path d="M68.9478 24.4507C70.7056 24.4507 72.1704 25.0895 73.3423 26.3672C74.5142 27.6367 75.1001 29.2236 75.1001 31.1279C75.1001 33.0322 74.5142 34.6232 73.3423 35.9009C72.1704 37.1704 70.7056 37.8052 68.9478 37.8052C67.4097 37.8052 66.1279 37.2803 65.1025 36.2305V42.2485H61.4526V24.7559H65.1025V26.0254C66.1279 24.9756 67.4097 24.4507 68.9478 24.4507ZM65.9937 33.374C66.5877 33.9762 67.3324 34.2773 68.2275 34.2773C69.1227 34.2773 69.8674 33.9762 70.4614 33.374C71.0555 32.7718 71.3525 32.0231 71.3525 31.1279C71.3525 30.2327 71.0555 29.484 70.4614 28.8818C69.8674 28.2796 69.1227 27.9785 68.2275 27.9785C67.3324 27.9785 66.5877 28.2796 65.9937 28.8818C65.3996 29.484 65.1025 30.2327 65.1025 31.1279C65.1025 32.0231 65.3996 32.7718 65.9937 33.374ZM84.8169 24.4507C86.2817 24.4507 87.4618 24.8942 88.3569 25.7812C89.2521 26.6602 89.6997 27.832 89.6997 29.2969V37.5H86.0498V30.5298C86.0498 29.7567 85.826 29.1382 85.3784 28.6743C84.9308 28.2104 84.3368 27.9785 83.5962 27.9785C82.8068 27.9785 82.168 28.2186 81.6797 28.6987C81.1914 29.1707 80.9473 29.7974 80.9473 30.5786V37.5H77.2974V19.4946H80.9473V26.0986C81.9727 25 83.2625 24.4507 84.8169 24.4507ZM94.1797 23.1201C93.5449 23.1201 93.0119 22.9085 92.5806 22.4854C92.1493 22.054 91.9336 21.5169 91.9336 20.874C91.9336 20.2393 92.1493 19.7103 92.5806 19.2871C93.0119 18.8639 93.5449 18.6523 94.1797 18.6523C94.8307 18.6523 95.3719 18.8639 95.8032 19.2871C96.2427 19.7103 96.4624 20.2393 96.4624 20.874C96.4624 21.5169 96.2427 22.054 95.8032 22.4854C95.3719 22.9085 94.8307 23.1201 94.1797 23.1201ZM92.3608 37.5V24.7559H96.0107V37.5H92.3608ZM106.423 24.4507C107.888 24.4507 109.068 24.8942 109.963 25.7812C110.859 26.6602 111.306 27.832 111.306 29.2969V37.5H107.656V30.5298C107.656 29.7567 107.428 29.1382 106.973 28.6743C106.525 28.2104 105.927 27.9785 105.178 27.9785C104.397 27.9785 103.762 28.2186 103.274 28.6987C102.794 29.1707 102.554 29.7974 102.554 30.5786V37.5H98.9038V24.7559H102.554V26.0254C103.579 24.9756 104.869 24.4507 106.423 24.4507ZM115.786 23.1201C115.151 23.1201 114.618 22.9085 114.187 22.4854C113.756 22.054 113.54 21.5169 113.54 20.874C113.54 20.2393 113.756 19.7103 114.187 19.2871C114.618 18.8639 115.151 18.6523 115.786 18.6523C116.437 18.6523 116.978 18.8639 117.41 19.2871C117.849 19.7103 118.069 20.2393 118.069 20.874C118.069 21.5169 117.849 22.054 117.41 22.4854C116.978 22.9085 116.437 23.1201 115.786 23.1201ZM113.967 37.5V24.7559H117.617V37.5H113.967ZM128.555 28.0762H125.283V32.7515C125.283 33.7687 125.816 34.2773 126.882 34.2773C127.411 34.2773 127.969 34.1268 128.555 33.8257V37.2559C127.83 37.6221 127.017 37.8052 126.113 37.8052C124.616 37.8052 123.493 37.4064 122.744 36.6089C122.004 35.8032 121.633 34.7168 121.633 33.3496V28.0762H119.705V24.7559H121.633V21.5942H125.283V24.7559H128.555V28.0762ZM143.215 31.1768C143.215 31.6162 143.191 31.9987 143.142 32.3242H133.645C133.873 33.0404 134.276 33.6019 134.854 34.0088C135.431 34.4157 136.119 34.6191 136.917 34.6191C137.6 34.6191 138.223 34.4849 138.784 34.2163C139.346 33.9478 139.789 33.61 140.115 33.2031L142.568 35.3271C141.877 36.1084 141.034 36.7188 140.042 37.1582C139.049 37.5895 137.974 37.8052 136.819 37.8052C134.792 37.8052 133.1 37.1623 131.741 35.8765C130.39 34.5825 129.714 32.9753 129.714 31.0547C129.714 29.8258 130.007 28.7069 130.593 27.6978C131.187 26.6886 132.005 25.8952 133.047 25.3174C134.089 24.7396 135.244 24.4507 136.514 24.4507C138.426 24.4507 140.021 25.0895 141.299 26.3672C142.576 27.6449 143.215 29.248 143.215 31.1768ZM136.465 27.6001C135.781 27.6001 135.183 27.8076 134.67 28.2227C134.158 28.6296 133.808 29.187 133.621 29.895H139.346C139.142 29.1789 138.784 28.6174 138.271 28.2104C137.759 27.8035 137.157 27.6001 136.465 27.6001Z" fill="url(#paint0_linear_619_38454)" style=""/>
<mask id="path-3-outside-1_619_38454" maskUnits="userSpaceOnUse" x="11.722" y="9" width="39" height="42" fill="black">
<rect fill="white" x="11.722" y="9" width="39" height="42"/>
<path d="M30.9105 10C31.8376 10 32.6234 10.5949 32.9135 11.4229C38.3933 11.7706 43.6185 14.5918 46.2572 19.4932C46.6374 20.1994 47.0934 21.0923 47.3461 21.9238L49.9427 23.832L48.9437 25.1904C48.8862 25.2852 48.8195 25.3768 48.7426 25.4639L48.0541 26.4004C47.9181 29.5492 47.3777 32.475 45.4213 35.0752C41.2508 40.6173 31.9514 41.8017 27.3138 36.1816C25.1905 33.608 24.5613 30.1626 25.4789 26.9766C26.82 22.3202 32.3847 19.8148 36.7211 22.1035C38.648 23.1205 39.9412 25.0367 40.1615 27.207C40.5041 30.5831 37.9273 33.9033 34.3392 33.6035C31.9751 33.4059 29.7901 30.6446 31.847 28.4297C33.2318 26.9388 36.1522 27.5391 36.1537 29.8057C36.1538 30.0922 36.0877 30.382 35.9818 30.6484C35.8889 30.8821 35.745 31.101 35.5677 31.2793C33.8787 32.9777 31.2723 30.2413 33.2474 28.9492C33.453 28.8149 33.6976 28.7503 33.932 28.6777C32.2846 28.4707 31.7721 30.7292 32.7728 31.7285C34.4483 33.401 37.0777 32.2897 38.2006 30.8594C38.7487 29.8614 39.0024 28.9962 39.0629 27.8584C39.2446 24.4351 36.1412 22.5842 33.1625 22.3896C30.825 22.2371 28.4954 23.6785 27.308 25.627C26.511 26.9348 26.1357 28.5703 26.1761 30.0938C26.2225 31.8384 26.7654 33.4949 27.766 34.9268C28.8426 36.4672 30.3403 37.5233 32.1029 38.1523C37.0034 39.9012 42.6424 37.7601 45.2338 33.2783C46.4453 31.1828 46.9172 28.9054 46.9213 26.5332L44.3978 24.6797L46.1927 22.2354C45.5185 20.3995 45.0897 19.5306 43.7406 17.7705C41.1933 14.4472 37.0058 13.0057 32.9974 12.5176C32.8129 13.5029 31.9494 14.249 30.9105 14.249C29.9371 14.2488 29.1187 13.5933 28.8676 12.7002C27.1814 13.0622 25.9669 13.31 24.4701 14.0967C21.8257 15.4867 20.9796 15.9572 18.8617 18.0869C14.9943 21.9763 13.7082 27.8685 13.8422 33.1582C14.5188 33.0632 15.216 33.0764 15.892 33.1758C17.9257 33.4748 18.8128 34.8882 19.1635 36.8076C19.622 39.3191 18.5727 42.1561 19.9398 44.4805C21.5476 47.2133 25.298 47.0356 28.0062 47.3848L28.0707 47.3936C28.0158 46.8787 28.0499 46.3369 28.0365 45.8174C28.5895 45.8519 31.7289 45.8331 32.1488 45.8115L32.1498 49.9727C30.7999 50.0496 29.4316 49.8794 28.0834 50C28.0105 49.491 28.0192 48.939 28.0717 48.4277C25.0178 48.3869 19.7615 47.9897 18.639 44.3896C18.4328 43.7279 18.252 43.0477 18.2015 42.3564C17.9639 39.0942 18.482 38.8092 17.9105 36.3027C17.8071 35.8494 17.4619 35.0648 17.0677 34.7578C16.5613 34.3635 15.6325 34.2462 15.0511 34.2246C14.3144 34.1972 13.5738 34.1954 12.8392 34.2588L12.8334 34.1934C12.6678 32.2211 12.6728 30.1694 12.9427 28.2051C13.9254 21.0553 18.5268 15.1205 25.2094 12.5117C25.928 12.2313 28.0238 11.7331 28.8578 11.583C29.0973 10.6723 29.9247 10.0002 30.9105 10Z"/>
</mask>
<path d="M30.9105 10C31.8376 10 32.6234 10.5949 32.9135 11.4229C38.3933 11.7706 43.6185 14.5918 46.2572 19.4932C46.6374 20.1994 47.0934 21.0923 47.3461 21.9238L49.9427 23.832L48.9437 25.1904C48.8862 25.2852 48.8195 25.3768 48.7426 25.4639L48.0541 26.4004C47.9181 29.5492 47.3777 32.475 45.4213 35.0752C41.2508 40.6173 31.9514 41.8017 27.3138 36.1816C25.1905 33.608 24.5613 30.1626 25.4789 26.9766C26.82 22.3202 32.3847 19.8148 36.7211 22.1035C38.648 23.1205 39.9412 25.0367 40.1615 27.207C40.5041 30.5831 37.9273 33.9033 34.3392 33.6035C31.9751 33.4059 29.7901 30.6446 31.847 28.4297C33.2318 26.9388 36.1522 27.5391 36.1537 29.8057C36.1538 30.0922 36.0877 30.382 35.9818 30.6484C35.8889 30.8821 35.745 31.101 35.5677 31.2793C33.8787 32.9777 31.2723 30.2413 33.2474 28.9492C33.453 28.8149 33.6976 28.7503 33.932 28.6777C32.2846 28.4707 31.7721 30.7292 32.7728 31.7285C34.4483 33.401 37.0777 32.2897 38.2006 30.8594C38.7487 29.8614 39.0024 28.9962 39.0629 27.8584C39.2446 24.4351 36.1412 22.5842 33.1625 22.3896C30.825 22.2371 28.4954 23.6785 27.308 25.627C26.511 26.9348 26.1357 28.5703 26.1761 30.0938C26.2225 31.8384 26.7654 33.4949 27.766 34.9268C28.8426 36.4672 30.3403 37.5233 32.1029 38.1523C37.0034 39.9012 42.6424 37.7601 45.2338 33.2783C46.4453 31.1828 46.9172 28.9054 46.9213 26.5332L44.3978 24.6797L46.1927 22.2354C45.5185 20.3995 45.0897 19.5306 43.7406 17.7705C41.1933 14.4472 37.0058 13.0057 32.9974 12.5176C32.8129 13.5029 31.9494 14.249 30.9105 14.249C29.9371 14.2488 29.1187 13.5933 28.8676 12.7002C27.1814 13.0622 25.9669 13.31 24.4701 14.0967C21.8257 15.4867 20.9796 15.9572 18.8617 18.0869C14.9943 21.9763 13.7082 27.8685 13.8422 33.1582C14.5188 33.0632 15.216 33.0764 15.892 33.1758C17.9257 33.4748 18.8128 34.8882 19.1635 36.8076C19.622 39.3191 18.5727 42.1561 19.9398 44.4805C21.5476 47.2133 25.298 47.0356 28.0062 47.3848L28.0707 47.3936C28.0158 46.8787 28.0499 46.3369 28.0365 45.8174C28.5895 45.8519 31.7289 45.8331 32.1488 45.8115L32.1498 49.9727C30.7999 50.0496 29.4316 49.8794 28.0834 50C28.0105 49.491 28.0192 48.939 28.0717 48.4277C25.0178 48.3869 19.7615 47.9897 18.639 44.3896C18.4328 43.7279 18.252 43.0477 18.2015 42.3564C17.9639 39.0942 18.482 38.8092 17.9105 36.3027C17.8071 35.8494 17.4619 35.0648 17.0677 34.7578C16.5613 34.3635 15.6325 34.2462 15.0511 34.2246C14.3144 34.1972 13.5738 34.1954 12.8392 34.2588L12.8334 34.1934C12.6678 32.2211 12.6728 30.1694 12.9427 28.2051C13.9254 21.0553 18.5268 15.1205 25.2094 12.5117C25.928 12.2313 28.0238 11.7331 28.8578 11.583C29.0973 10.6723 29.9247 10.0002 30.9105 10Z" fill="url(#paint1_linear_619_38454)" style=""/>
<path d="M30.9105 10V9.5H30.9104L30.9105 10ZM32.9135 11.4229L32.4416 11.5882L32.5511 11.9009L32.8818 11.9218L32.9135 11.4229ZM46.2572 19.4932L45.8169 19.7302V19.7302L46.2572 19.4932ZM47.3461 21.9238L46.8677 22.0692L46.916 22.2283L47.05 22.3267L47.3461 21.9238ZM49.9427 23.832L50.3455 24.1283L50.6419 23.7253L50.2388 23.4291L49.9427 23.832ZM48.9437 25.1904L48.5409 24.8942L48.5279 24.9119L48.5164 24.9308L48.9437 25.1904ZM48.7426 25.4639L48.3679 25.1327L48.353 25.1496L48.3397 25.1677L48.7426 25.4639ZM48.0541 26.4004L47.6512 26.1042L47.5611 26.2268L47.5545 26.3788L48.0541 26.4004ZM45.4213 35.0752L45.8208 35.3758L45.8208 35.3758L45.4213 35.0752ZM27.3138 36.1816L26.9282 36.4998L26.9282 36.4999L27.3138 36.1816ZM25.4789 26.9766L24.9984 26.8382L24.9984 26.8382L25.4789 26.9766ZM36.7211 22.1035L36.9545 21.6613L36.9545 21.6613L36.7211 22.1035ZM40.1615 27.207L39.6641 27.2575V27.2575L40.1615 27.207ZM34.3392 33.6035L34.2976 34.1018L34.2976 34.1018L34.3392 33.6035ZM31.847 28.4297L31.4807 28.0894L31.4807 28.0894L31.847 28.4297ZM36.1537 29.8057L36.6537 29.8054V29.8053L36.1537 29.8057ZM35.9818 30.6484L36.4464 30.8332L36.4465 30.833L35.9818 30.6484ZM35.5677 31.2793L35.9223 31.6319L35.9223 31.6318L35.5677 31.2793ZM33.2474 28.9492L32.9739 28.5307L32.9737 28.5308L33.2474 28.9492ZM33.932 28.6777L34.0798 29.1554L33.9944 28.1816L33.932 28.6777ZM32.7728 31.7285L32.4195 32.0823L32.4196 32.0824L32.7728 31.7285ZM38.2006 30.8594L38.5939 31.1681L38.6191 31.1359L38.6388 31.1001L38.2006 30.8594ZM39.0629 27.8584L39.5622 27.8849V27.8849L39.0629 27.8584ZM33.1625 22.3896L33.1951 21.8907L33.195 21.8907L33.1625 22.3896ZM27.308 25.627L26.881 25.3667L26.881 25.3668L27.308 25.627ZM26.1761 30.0938L25.6763 30.107L25.6763 30.107L26.1761 30.0938ZM27.766 34.9268L27.3561 35.2132L27.3562 35.2132L27.766 34.9268ZM32.1029 38.1523L32.271 37.6814L32.271 37.6814L32.1029 38.1523ZM45.2338 33.2783L45.6666 33.5286L45.6666 33.5286L45.2338 33.2783ZM46.9213 26.5332L47.4213 26.5341L47.4217 26.2804L47.2173 26.1302L46.9213 26.5332ZM44.3978 24.6797L43.9948 24.3837L43.6989 24.7867L44.1018 25.0827L44.3978 24.6797ZM46.1927 22.2354L46.5958 22.5313L46.7546 22.3149L46.6621 22.063L46.1927 22.2354ZM43.7406 17.7705L44.1374 17.4663L44.1374 17.4663L43.7406 17.7705ZM32.9974 12.5176L33.0579 12.0212L32.5923 11.9645L32.506 12.4256L32.9974 12.5176ZM30.9105 14.249L30.9104 14.749H30.9105V14.249ZM28.8676 12.7002L29.3489 12.5649L29.2218 12.1127L28.7626 12.2113L28.8676 12.7002ZM24.4701 14.0967L24.2375 13.6541L24.2375 13.6541L24.4701 14.0967ZM18.8617 18.0869L18.5072 17.7344L18.5071 17.7344L18.8617 18.0869ZM13.8422 33.1582L13.3423 33.1709L13.3565 33.7313L13.9117 33.6533L13.8422 33.1582ZM15.892 33.1758L15.9647 32.6811L15.9647 32.6811L15.892 33.1758ZM19.1635 36.8076L19.6553 36.7178L19.6553 36.7178L19.1635 36.8076ZM19.9398 44.4805L19.5088 44.734L19.5089 44.734L19.9398 44.4805ZM28.0062 47.3848L28.0738 46.8893L28.0702 46.8889L28.0062 47.3848ZM28.0707 47.3936L28.0031 47.889L28.6355 47.9752L28.5679 47.3405L28.0707 47.3936ZM28.0365 45.8174L28.0677 45.3184L27.5226 45.2843L27.5367 45.8303L28.0365 45.8174ZM32.1488 45.8115L32.6488 45.8114L32.6487 45.2852L32.1232 45.3122L32.1488 45.8115ZM32.1498 49.9727L32.1782 50.4718L32.6499 50.445L32.6498 49.9725L32.1498 49.9727ZM28.0834 50L27.5884 50.0708L27.6556 50.5403L28.1279 50.498L28.0834 50ZM28.0717 48.4277L28.569 48.4788L28.6249 47.9351L28.0783 47.9278L28.0717 48.4277ZM18.639 44.3896L18.1617 44.5384L18.1617 44.5385L18.639 44.3896ZM18.2015 42.3564L17.7029 42.3928L17.7029 42.3928L18.2015 42.3564ZM17.9105 36.3027L18.398 36.1916L18.398 36.1915L17.9105 36.3027ZM17.0677 34.7578L17.375 34.3633L17.3749 34.3633L17.0677 34.7578ZM15.0511 34.2246L15.0325 34.7243L15.0326 34.7243L15.0511 34.2246ZM12.8392 34.2588L12.3412 34.3034L12.3857 34.7998L12.8822 34.7569L12.8392 34.2588ZM12.8334 34.1934L12.3351 34.2352L12.3354 34.238L12.8334 34.1934ZM12.9427 28.2051L12.4474 28.137L12.4474 28.137L12.9427 28.2051ZM25.2094 12.5117L25.0276 12.0459L25.0275 12.046L25.2094 12.5117ZM28.8578 11.583L28.9463 12.0751L29.2602 12.0186L29.3413 11.7102L28.8578 11.583ZM30.9105 10V10.5C31.6175 10.5 32.2192 10.9533 32.4416 11.5882L32.9135 11.4229L33.3853 11.2575C33.0276 10.2364 32.0576 9.5 30.9105 9.5V10ZM32.9135 11.4229L32.8818 11.9218C38.2206 12.2607 43.2739 15.0065 45.8169 19.7302L46.2572 19.4932L46.6975 19.2561C43.963 14.1771 38.566 11.2806 32.9451 10.9239L32.9135 11.4229ZM46.2572 19.4932L45.8169 19.7302C46.197 20.4361 46.6309 21.2902 46.8677 22.0692L47.3461 21.9238L47.8245 21.7784C47.5558 20.8945 47.0779 19.9628 46.6975 19.2561L46.2572 19.4932ZM47.3461 21.9238L47.05 22.3267L49.6467 24.2349L49.9427 23.832L50.2388 23.4291L47.6422 21.5209L47.3461 21.9238ZM49.9427 23.832L49.54 23.5358L48.5409 24.8942L48.9437 25.1904L49.3465 25.4867L50.3455 24.1283L49.9427 23.832ZM48.9437 25.1904L48.5164 24.9308C48.4735 25.0014 48.4243 25.0689 48.3679 25.1327L48.7426 25.4639L49.1172 25.795C49.2147 25.6847 49.2988 25.569 49.371 25.4501L48.9437 25.1904ZM48.7426 25.4639L48.3397 25.1677L47.6512 26.1042L48.0541 26.4004L48.4569 26.6965L49.1454 25.76L48.7426 25.4639ZM48.0541 26.4004L47.5545 26.3788C47.4203 29.487 46.8891 32.2928 45.0217 34.7746L45.4213 35.0752L45.8208 35.3758C47.8663 32.6572 48.4159 29.6113 48.5536 26.422L48.0541 26.4004ZM45.4213 35.0752L45.0217 34.7746C43.0315 37.4194 39.801 39.0401 36.5011 39.316C33.206 39.5914 29.8948 38.5238 27.6995 35.8634L27.3138 36.1816L26.9282 36.4999C29.3705 39.4596 33.0277 40.6098 36.5843 40.3125C40.1361 40.0156 43.6406 38.2731 45.8208 35.3758L45.4213 35.0752ZM27.3138 36.1816L27.6995 35.8634C25.687 33.4241 25.0848 30.1515 25.9594 27.1149L25.4789 26.9766L24.9984 26.8382C24.0378 30.1737 24.694 33.7919 26.9282 36.4998L27.3138 36.1816ZM25.4789 26.9766L25.9593 27.1149C27.2161 22.7517 32.4423 20.4106 36.4877 22.5457L36.7211 22.1035L36.9545 21.6613C32.3271 19.2191 26.424 21.8886 24.9984 26.8382L25.4789 26.9766ZM36.7211 22.1035L36.4877 22.5457C38.2667 23.4847 39.4607 25.2538 39.6641 27.2575L40.1615 27.207L40.6589 27.1565C40.4218 24.8196 39.0293 22.7564 36.9545 21.6613L36.7211 22.1035ZM40.1615 27.207L39.6641 27.2575C39.982 30.3901 37.5927 33.3736 34.3809 33.1053L34.3392 33.6035L34.2976 34.1018C38.2619 34.433 41.0263 30.776 40.6589 27.1565L40.1615 27.207ZM34.3392 33.6035L34.3809 33.1053C33.3647 33.0203 32.3704 32.375 31.866 31.5192C31.6178 31.0981 31.4968 30.6411 31.5345 30.186C31.5719 29.735 31.7676 29.25 32.2134 28.7699L31.847 28.4297L31.4807 28.0894C30.898 28.7169 30.5956 29.4075 30.5379 30.1035C30.4807 30.7952 30.668 31.4562 31.0045 32.027C31.6693 33.155 32.9496 33.9891 34.2976 34.1018L34.3392 33.6035ZM31.847 28.4297L32.2134 28.77C32.763 28.1782 33.6394 27.9864 34.3872 28.1909C35.1122 28.3892 35.6531 28.9359 35.6537 29.806L36.1537 29.8057L36.6537 29.8053C36.6528 28.4089 35.7327 27.5222 34.651 27.2263C33.592 26.9367 32.3158 27.1903 31.4807 28.0894L31.847 28.4297ZM36.1537 29.8057L35.6537 29.8059C35.6538 30.0173 35.6044 30.2441 35.5171 30.4638L35.9818 30.6484L36.4465 30.833C36.5709 30.5199 36.6539 30.1671 36.6537 29.8054L36.1537 29.8057ZM35.9818 30.6484L35.5172 30.4637C35.4494 30.6342 35.3431 30.7961 35.2131 30.9268L35.5677 31.2793L35.9223 31.6318C36.147 31.4058 36.3284 31.13 36.4464 30.8332L35.9818 30.6484ZM35.5677 31.2793L35.2132 30.9267C34.8931 31.2487 34.5577 31.3405 34.2567 31.3152C33.9407 31.2886 33.6269 31.1287 33.392 30.8871C33.1554 30.6438 33.0349 30.3564 33.0391 30.1058C33.043 29.879 33.1491 29.611 33.5212 29.3676L33.2474 28.9492L32.9737 28.5308C32.3582 28.9335 32.0494 29.4921 32.0393 30.0887C32.0295 30.6615 32.2958 31.1943 32.6751 31.5843C33.056 31.976 33.587 32.2625 34.173 32.3117C34.774 32.3622 35.3979 32.1591 35.9223 31.6319L35.5677 31.2793ZM33.2474 28.9492L33.521 29.3678C33.6527 29.2817 33.811 29.2385 34.0798 29.1554L33.932 28.6777L33.7843 28.2001C33.5841 28.262 33.2532 28.3481 32.9739 28.5307L33.2474 28.9492ZM33.932 28.6777L33.9944 28.1816C33.4583 28.1143 32.9865 28.2478 32.615 28.5267C32.2516 28.7995 32.0118 29.1897 31.8824 29.6006C31.6299 30.4026 31.7602 31.424 32.4195 32.0823L32.7728 31.7285L33.1261 31.3747C32.7847 31.0338 32.6708 30.4262 32.8363 29.9009C32.9158 29.6481 33.0505 29.4501 33.2153 29.3264C33.372 29.2088 33.582 29.1377 33.8697 29.1738L33.932 28.6777ZM32.7728 31.7285L32.4196 32.0824C33.4106 33.0716 34.6814 33.2213 35.8133 32.9431C36.9304 32.6685 37.9643 31.97 38.5939 31.1681L38.2006 30.8594L37.8073 30.5506C37.3139 31.1791 36.4718 31.7514 35.5746 31.972C34.6922 32.1888 33.8106 32.0579 33.1261 31.3746L32.7728 31.7285ZM38.2006 30.8594L38.6388 31.1001C39.222 30.0382 39.4976 29.1001 39.5622 27.8849L39.0629 27.8584L38.5636 27.8319C38.5072 28.8923 38.2753 29.6846 37.7623 30.6187L38.2006 30.8594ZM39.0629 27.8584L39.5622 27.8849C39.6625 25.9954 38.8478 24.5289 37.6132 23.5253C36.3925 22.5329 34.7671 21.9934 33.1951 21.8907L33.1625 22.3896L33.1299 22.8886C34.5365 22.9805 35.9522 23.4637 36.9824 24.3012C37.9988 25.1275 38.645 26.2981 38.5636 27.8319L39.0629 27.8584ZM33.1625 22.3896L33.195 21.8907C30.6417 21.7241 28.1485 23.2871 26.881 25.3667L27.308 25.627L27.7349 25.8872C28.8424 24.07 31.0083 22.7501 33.1299 22.8886L33.1625 22.3896ZM27.308 25.627L26.881 25.3668C26.0275 26.7673 25.6337 28.5004 25.6763 30.107L26.1761 30.0938L26.676 30.0805C26.6378 28.6402 26.9945 27.1022 27.7349 25.8871L27.308 25.627ZM26.1761 30.0938L25.6763 30.107C25.7253 31.949 26.2992 33.7006 27.3561 35.2132L27.766 34.9268L28.1758 34.6404C27.2316 33.2892 26.7197 31.7277 26.676 30.0805L26.1761 30.0938ZM27.766 34.9268L27.3562 35.2132C28.4996 36.8492 30.0871 37.9639 31.9349 38.6233L32.1029 38.1523L32.271 37.6814C30.5934 37.0828 29.1857 36.0853 28.1758 34.6403L27.766 34.9268ZM32.1029 38.1523L31.9348 38.6233C37.0674 40.4549 42.957 38.215 45.6666 33.5286L45.2338 33.2783L44.8009 33.028C42.3279 37.3053 36.9395 39.3475 32.271 37.6814L32.1029 38.1523ZM45.2338 33.2783L45.6666 33.5286C46.9312 31.3414 47.4171 28.9735 47.4213 26.5341L46.9213 26.5332L46.4213 26.5324C46.4174 28.8373 45.9595 31.0242 44.8009 33.0281L45.2338 33.2783ZM46.9213 26.5332L47.2173 26.1302L44.6938 24.2767L44.3978 24.6797L44.1018 25.0827L46.6253 26.9362L46.9213 26.5332ZM44.3978 24.6797L44.8008 24.9756L46.5958 22.5313L46.1927 22.2354L45.7897 21.9394L43.9948 24.3837L44.3978 24.6797ZM46.1927 22.2354L46.6621 22.063C45.9723 20.1848 45.5203 19.2705 44.1374 17.4663L43.7406 17.7705L43.3438 18.0747C44.6591 19.7907 45.0647 20.6142 45.7234 22.4077L46.1927 22.2354ZM43.7406 17.7705L44.1374 17.4663C41.4705 13.987 37.1216 12.5161 33.0579 12.0212L32.9974 12.5176L32.937 13.0139C36.8899 13.4953 40.9161 14.9074 43.3438 18.0747L43.7406 17.7705ZM32.9974 12.5176L32.506 12.4256C32.3649 13.1792 31.7039 13.749 30.9105 13.749V14.249V14.749C32.1949 14.749 33.261 13.8267 33.4889 12.6096L32.9974 12.5176ZM30.9105 14.249L30.9106 13.749C30.1678 13.7489 29.5412 13.2488 29.3489 12.5649L28.8676 12.7002L28.3862 12.8355C28.6962 13.9379 29.7064 14.7488 30.9104 14.749L30.9105 14.249ZM28.8676 12.7002L28.7626 12.2113C27.0826 12.572 25.8033 12.8311 24.2375 13.6541L24.4701 14.0967L24.7027 14.5393C26.1305 13.7888 27.2801 13.5524 28.9725 13.1891L28.8676 12.7002ZM24.4701 14.0967L24.2375 13.6541C22.9207 14.3462 22.0203 14.8252 21.1842 15.4031C20.3418 15.9852 19.5765 16.659 18.5072 17.7344L18.8617 18.0869L19.2162 18.4395C20.2648 17.3851 20.9814 16.7588 21.7527 16.2257C22.5302 15.6884 23.3751 15.2371 24.7027 14.5393L24.4701 14.0967ZM18.8617 18.0869L18.5071 17.7344C14.5038 21.7605 13.2066 27.8136 13.3423 33.1709L13.8422 33.1582L14.342 33.1455C14.2097 27.9234 15.4848 22.1922 19.2162 18.4395L18.8617 18.0869ZM13.8422 33.1582L13.9117 33.6533C14.536 33.5657 15.185 33.5772 15.8192 33.6705L15.892 33.1758L15.9647 32.6811C15.2471 32.5756 14.5017 32.5607 13.7726 32.6631L13.8422 33.1582ZM15.892 33.1758L15.8192 33.6705C16.7235 33.8034 17.3383 34.1747 17.773 34.7021C18.2183 35.2423 18.5046 35.9832 18.6716 36.8975L19.1635 36.8076L19.6553 36.7178C19.4717 35.7126 19.1391 34.7871 18.5447 34.066C17.9398 33.3322 17.0942 32.8472 15.9647 32.6811L15.892 33.1758ZM19.1635 36.8076L18.6716 36.8974C18.8885 38.0853 18.7468 39.3274 18.7111 40.7012C18.6766 42.0324 18.7502 43.4441 19.5088 44.734L19.9398 44.4805L20.3708 44.227C19.7623 43.1925 19.6771 42.0235 19.7108 40.7272C19.7433 39.4735 19.897 38.0414 19.6553 36.7178L19.1635 36.8076ZM19.9398 44.4805L19.5089 44.734C20.4123 46.2696 21.9083 46.9584 23.4479 47.3137C24.2182 47.4915 25.0166 47.5898 25.7801 47.6655C26.5565 47.7426 27.2741 47.7945 27.9423 47.8807L28.0062 47.3848L28.0702 46.8889C27.3843 46.8004 26.6174 46.7437 25.8788 46.6704C25.127 46.5959 24.3795 46.5024 23.6728 46.3393C22.2582 46.0129 21.0751 45.4241 20.3708 44.2269L19.9398 44.4805ZM28.0062 47.3848L27.9387 47.8802L28.0031 47.889L28.0707 47.3936L28.1382 46.8981L28.0738 46.8894L28.0062 47.3848ZM28.0707 47.3936L28.5679 47.3405C28.5152 46.8468 28.5515 46.3907 28.5363 45.8045L28.0365 45.8174L27.5367 45.8303C27.5484 46.2831 27.5163 46.9105 27.5735 47.4466L28.0707 47.3936ZM28.0365 45.8174L28.0053 46.3164C28.5828 46.3525 31.7421 46.3331 32.1744 46.3109L32.1488 45.8115L32.1232 45.3122C31.7158 45.3331 28.5963 45.3514 28.0677 45.3184L28.0365 45.8174ZM32.1488 45.8115L31.6488 45.8116L31.6498 49.9728L32.1498 49.9727L32.6498 49.9725L32.6488 45.8114L32.1488 45.8115ZM32.1498 49.9727L32.1213 49.4735C31.4719 49.5105 30.8162 49.4882 30.1291 49.4701C29.4508 49.4523 28.7451 49.4388 28.0388 49.502L28.0834 50L28.1279 50.498C28.7699 50.4406 29.4225 50.4519 30.1028 50.4698C30.7744 50.4874 31.4778 50.5118 32.1782 50.4718L32.1498 49.9727ZM28.0834 50L28.5783 49.9292C28.5129 49.4719 28.5194 48.9627 28.569 48.4788L28.0717 48.4277L27.5743 48.3767C27.519 48.9152 27.5082 49.5101 27.5884 50.0708L28.0834 50ZM28.0717 48.4277L28.0783 47.9278C26.5602 47.9075 24.5413 47.7979 22.7756 47.2647C21.0029 46.7295 19.6046 45.8066 19.1164 44.2408L18.639 44.3896L18.1617 44.5385C18.796 46.5727 20.5871 47.6485 22.4866 48.222C24.3931 48.7977 26.5292 48.9071 28.065 48.9277L28.0717 48.4277ZM18.639 44.3896L19.1164 44.2409C18.9131 43.5885 18.7463 42.9526 18.7002 42.3201L18.2015 42.3564L17.7029 42.3928C17.7576 43.1429 17.9525 43.8673 18.1617 44.5384L18.639 44.3896ZM18.2015 42.3564L18.7002 42.3201C18.5838 40.7216 18.6522 39.8642 18.6809 39.0641C18.7105 38.2367 18.6951 37.4945 18.398 36.1916L17.9105 36.3027L17.423 36.4139C17.6974 37.6174 17.7087 38.271 17.6815 39.0283C17.6534 39.8128 17.5816 40.7291 17.7029 42.3928L18.2015 42.3564ZM17.9105 36.3027L18.398 36.1915C18.3357 35.9187 18.2078 35.5704 18.0436 35.2483C17.8849 34.9371 17.6597 34.5851 17.375 34.3633L17.0677 34.7578L16.7605 35.1523C16.87 35.2375 17.0144 35.4313 17.1527 35.7025C17.2855 35.9628 17.3819 36.2335 17.4231 36.414L17.9105 36.3027ZM17.0677 34.7578L17.3749 34.3633C17.0351 34.0987 16.591 33.9506 16.1954 33.8632C15.7897 33.7736 15.3808 33.7365 15.0697 33.725L15.0511 34.2246L15.0326 34.7243C15.3029 34.7343 15.649 34.7667 15.9797 34.8397C16.3205 34.9149 16.594 35.0226 16.7606 35.1523L17.0677 34.7578ZM15.0511 34.2246L15.0698 33.725C14.3224 33.6971 13.5593 33.6948 12.7963 33.7606L12.8392 34.2588L12.8822 34.7569C13.5884 34.6961 14.3065 34.6972 15.0325 34.7243L15.0511 34.2246ZM12.8392 34.2588L13.3372 34.2142L13.3314 34.1488L12.8334 34.1934L12.3354 34.238L12.3412 34.3034L12.8392 34.2588ZM12.8334 34.1934L13.3316 34.1515C13.1684 32.2073 13.1742 30.1934 13.4381 28.2732L12.9427 28.2051L12.4474 28.137C12.1714 30.1453 12.1672 32.2349 12.3351 34.2352L12.8334 34.1934ZM12.9427 28.2051L13.4381 28.2732C14.3966 21.2989 18.8812 15.5189 25.3912 12.9775L25.2094 12.5117L25.0275 12.046C18.1723 14.7221 13.4542 20.8116 12.4474 28.137L12.9427 28.2051ZM25.2094 12.5117L25.3911 12.9775C26.0631 12.7153 28.12 12.2238 28.9463 12.0751L28.8578 11.583L28.7692 11.0909C27.9276 11.2424 25.7929 11.7473 25.0276 12.0459L25.2094 12.5117ZM28.8578 11.583L29.3413 11.7102C29.5247 11.0131 30.1581 10.5002 30.9106 10.5L30.9105 10L30.9104 9.5C29.6913 9.50025 28.6699 10.3315 28.3742 11.4558L28.8578 11.583Z" fill="url(#paint2_linear_619_38454)" style="" mask="url(#path-3-outside-1_619_38454)"/>
<defs>
<linearGradient id="paint0_linear_619_38454" x1="144" y1="19.3214" x2="140.436" y2="39.636" gradientUnits="userSpaceOnUse">
<stop stop-color="#7A44FF" style="stop-color:#7A44FF;stop-color:color(display-p3 0.4784 0.2667 1.0000);stop-opacity:1;"/>
<stop offset="1" stop-color="#5816BB" style="stop-color:#5816BB;stop-color:color(display-p3 0.3444 0.0856 0.7324);stop-opacity:1;"/>
</linearGradient>
<linearGradient id="paint1_linear_619_38454" x1="49.2717" y1="9.6431" x2="28.8245" y2="35.0167" gradientUnits="userSpaceOnUse">
<stop stop-color="#7A44FF" style="stop-color:#7A44FF;stop-color:color(display-p3 0.4784 0.2667 1.0000);stop-opacity:1;"/>
<stop offset="1" stop-color="#5816BB" style="stop-color:#5816BB;stop-color:color(display-p3 0.3444 0.0856 0.7324);stop-opacity:1;"/>
</linearGradient>
<linearGradient id="paint2_linear_619_38454" x1="49.2717" y1="9.6431" x2="28.8245" y2="35.0167" gradientUnits="userSpaceOnUse">
<stop stop-color="#7A44FF" style="stop-color:#7A44FF;stop-color:color(display-p3 0.4784 0.2667 1.0000);stop-opacity:1;"/>
<stop offset="1" stop-color="#5816BB" style="stop-color:#5816BB;stop-color:color(display-p3 0.3444 0.0856 0.7324);stop-opacity:1;"/>
</linearGradient>
</defs>
</svg>
